<?xml version="1.0" encoding="UTF-8"?>
<svg height="128px" viewBox="0 0 128 128" width="128px" xmlns="http://www.w3.org/2000/svg" xmlns:xlink="http://www.w3.org/1999/xlink">
    <filter id="a" height="100%" width="100%" x="0%" y="0%">
        <feColorMatrix color-interpolation-filters="sRGB" values="0 0 0 0 1 0 0 0 0 1 0 0 0 0 1 0 0 0 1 0"/>
    </filter>
    <linearGradient id="b" gradientUnits="userSpaceOnUse" x1="12.649902" x2="115.084297" y1="51.383881" y2="51.383881">
        <stop offset="0" stop-color="#241f31"/>
        <stop offset="0.0397878" stop-color="#54496f"/>
        <stop offset="0.106101" stop-color="#221d31"/>
        <stop offset="0.432361" stop-color="#221d32"/>
        <stop offset="0.503979" stop-color="#433b5d"/>
        <stop offset="0.625995" stop-color="#1e182b"/>
        <stop offset="0.936339" stop-color="#3d3450"/>
        <stop offset="1" stop-color="#241f31"/>
    </linearGradient>
    <linearGradient id="c" gradientUnits="userSpaceOnUse" x1="60.470734" x2="86.82653" y1="102.736938" y2="23.397842">
        <stop offset="0" stop-color="#2e2e2e"/>
        <stop offset="1" stop-color="#646464"/>
    </linearGradient>
    <clipPath id="d">
        <path d="m 14 15 h 39 v 95 h -39 z m 0 0"/>
    </clipPath>
    <clipPath id="e">
        <path d="m 20.386719 15.335938 h 26.238281 c 3.320312 0 6.007812 2.691406 6.007812 6.011718 v 82.136719 c 0 3.320313 -2.6875 6.011719 -6.007812 6.011719 h -26.238281 c -3.316407 0 -6.007813 -2.691406 -6.007813 -6.011719 v -82.136719 c 0 -3.320312 2.691406 -6.011718 6.007813 -6.011718 z m 0 0"/>
    </clipPath>
    <clipPath id="f">
        <path d="m 16 18 h 35 v 22 h -35 z m 0 0"/>
    </clipPath>
    <clipPath id="g">
        <path d="m 20.386719 15.335938 h 26.238281 c 3.320312 0 6.007812 2.691406 6.007812 6.011718 v 82.136719 c 0 3.320313 -2.6875 6.011719 -6.007812 6.011719 h -26.238281 c -3.316407 0 -6.007813 -2.691406 -6.007813 -6.011719 v -82.136719 c 0 -3.320312 2.691406 -6.011718 6.007813 -6.011718 z m 0 0"/>
    </clipPath>
    <linearGradient id="h" gradientUnits="userSpaceOnUse">
        <stop offset="0" stop-color="#9d948d"/>
        <stop offset="0.0842982" stop-color="#f2f1f0"/>
        <stop offset="0.197845" stop-color="#bab7b7"/>
        <stop offset="1" stop-color="#cfcdc8"/>
    </linearGradient>
    <linearGradient id="i" x1="16.625" x2="50.75" xlink:href="#h" y1="34.75" y2="34.5"/>
    <clipPath id="j">
        <path d="m 16 16 h 35 v 22 h -35 z m 0 0"/>
    </clipPath>
    <clipPath id="k">
        <path d="m 20.386719 15.335938 h 26.238281 c 3.320312 0 6.007812 2.691406 6.007812 6.011718 v 82.136719 c 0 3.320313 -2.6875 6.011719 -6.007812 6.011719 h -26.238281 c -3.316407 0 -6.007813 -2.691406 -6.007813 -6.011719 v -82.136719 c 0 -3.320312 2.691406 -6.011718 6.007813 -6.011718 z m 0 0"/>
    </clipPath>
    <clipPath id="l">
        <path d="m 16 42 h 35 v 22 h -35 z m 0 0"/>
    </clipPath>
    <clipPath id="m">
        <path d="m 20.386719 15.335938 h 26.238281 c 3.320312 0 6.007812 2.691406 6.007812 6.011718 v 82.136719 c 0 3.320313 -2.6875 6.011719 -6.007812 6.011719 h -26.238281 c -3.316407 0 -6.007813 -2.691406 -6.007813 -6.011719 v -82.136719 c 0 -3.320312 2.691406 -6.011718 6.007813 -6.011718 z m 0 0"/>
    </clipPath>
    <linearGradient id="n" x1="16.625" x2="50.75" xlink:href="#h" y1="58.375" y2="58.125"/>
    <clipPath id="o">
        <path d="m 16 39 h 35 v 22 h -35 z m 0 0"/>
    </clipPath>
    <clipPath id="p">
        <path d="m 20.386719 15.335938 h 26.238281 c 3.320312 0 6.007812 2.691406 6.007812 6.011718 v 82.136719 c 0 3.320313 -2.6875 6.011719 -6.007812 6.011719 h -26.238281 c -3.316407 0 -6.007813 -2.691406 -6.007813 -6.011719 v -82.136719 c 0 -3.320312 2.691406 -6.011718 6.007813 -6.011718 z m 0 0"/>
    </clipPath>
    <clipPath id="q">
        <path d="m 16 65 h 35 v 22 h -35 z m 0 0"/>
    </clipPath>
    <clipPath id="r">
        <path d="m 20.386719 15.335938 h 26.238281 c 3.320312 0 6.007812 2.691406 6.007812 6.011718 v 82.136719 c 0 3.320313 -2.6875 6.011719 -6.007812 6.011719 h -26.238281 c -3.316407 0 -6.007813 -2.691406 -6.007813 -6.011719 v -82.136719 c 0 -3.320312 2.691406 -6.011718 6.007813 -6.011718 z m 0 0"/>
    </clipPath>
    <linearGradient id="s" x1="16.625" x2="50.75" xlink:href="#h" y1="81.75" y2="81.5"/>
    <clipPath id="t">
        <path d="m 16 63 h 35 v 22 h -35 z m 0 0"/>
    </clipPath>
    <clipPath id="u">
        <path d="m 20.386719 15.335938 h 26.238281 c 3.320312 0 6.007812 2.691406 6.007812 6.011718 v 82.136719 c 0 3.320313 -2.6875 6.011719 -6.007812 6.011719 h -26.238281 c -3.316407 0 -6.007813 -2.691406 -6.007813 -6.011719 v -82.136719 c 0 -3.320312 2.691406 -6.011718 6.007813 -6.011718 z m 0 0"/>
    </clipPath>
    <clipPath id="v">
        <path d="m 16 88 h 35 v 21 h -35 z m 0 0"/>
    </clipPath>
    <clipPath id="w">
        <path d="m 20.386719 15.335938 h 26.238281 c 3.320312 0 6.007812 2.691406 6.007812 6.011718 v 82.136719 c 0 3.320313 -2.6875 6.011719 -6.007812 6.011719 h -26.238281 c -3.316407 0 -6.007813 -2.691406 -6.007813 -6.011719 v -82.136719 c 0 -3.320312 2.691406 -6.011718 6.007813 -6.011718 z m 0 0"/>
    </clipPath>
    <clipPath id="x">
        <path d="m 26 30 h 26 v 17 h -26 z m 0 0"/>
    </clipPath>
    <clipPath id="y">
        <path d="m 20.386719 15.335938 h 26.238281 c 3.320312 0 6.007812 2.691406 6.007812 6.011718 v 82.136719 c 0 3.320313 -2.6875 6.011719 -6.007812 6.011719 h -26.238281 c -3.316407 0 -6.007813 -2.691406 -6.007813 -6.011719 v -82.136719 c 0 -3.320312 2.691406 -6.011718 6.007813 -6.011718 z m 0 0"/>
    </clipPath>
    <clipPath id="z">
        <path d="m 28 32 h 24 v 10 h -24 z m 0 0"/>
    </clipPath>
    <clipPath id="A">
        <path d="m 20.386719 15.335938 h 26.238281 c 3.320312 0 6.007812 2.691406 6.007812 6.011718 v 82.136719 c 0 3.320313 -2.6875 6.011719 -6.007812 6.011719 h -26.238281 c -3.316407 0 -6.007813 -2.691406 -6.007813 -6.011719 v -82.136719 c 0 -3.320312 2.691406 -6.011718 6.007813 -6.011718 z m 0 0"/>
    </clipPath>
    <clipPath id="B">
        <path d="m 26 54 h 26 v 17 h -26 z m 0 0"/>
    </clipPath>
    <clipPath id="C">
        <path d="m 20.386719 15.335938 h 26.238281 c 3.320312 0 6.007812 2.691406 6.007812 6.011718 v 82.136719 c 0 3.320313 -2.6875 6.011719 -6.007812 6.011719 h -26.238281 c -3.316407 0 -6.007813 -2.691406 -6.007813 -6.011719 v -82.136719 c 0 -3.320312 2.691406 -6.011718 6.007813 -6.011718 z m 0 0"/>
    </clipPath>
    <clipPath id="D">
        <path d="m 28 56 h 24 v 10 h -24 z m 0 0"/>
    </clipPath>
    <clipPath id="E">
        <path d="m 20.386719 15.335938 h 26.238281 c 3.320312 0 6.007812 2.691406 6.007812 6.011718 v 82.136719 c 0 3.320313 -2.6875 6.011719 -6.007812 6.011719 h -26.238281 c -3.316407 0 -6.007813 -2.691406 -6.007813 -6.011719 v -82.136719 c 0 -3.320312 2.691406 -6.011718 6.007813 -6.011718 z m 0 0"/>
    </clipPath>
    <clipPath id="F">
        <path d="m 16 86 h 35 v 21 h -35 z m 0 0"/>
    </clipPath>
    <clipPath id="G">
        <path d="m 20.386719 15.335938 h 26.238281 c 3.320312 0 6.007812 2.691406 6.007812 6.011718 v 82.136719 c 0 3.320313 -2.6875 6.011719 -6.007812 6.011719 h -26.238281 c -3.316407 0 -6.007813 -2.691406 -6.007813 -6.011719 v -82.136719 c 0 -3.320312 2.691406 -6.011718 6.007813 -6.011718 z m 0 0"/>
    </clipPath>
    <clipPath id="H">
        <path d="m 26 76 h 26 v 17 h -26 z m 0 0"/>
    </clipPath>
    <clipPath id="I">
        <path d="m 20.386719 15.335938 h 26.238281 c 3.320312 0 6.007812 2.691406 6.007812 6.011718 v 82.136719 c 0 3.320313 -2.6875 6.011719 -6.007812 6.011719 h -26.238281 c -3.316407 0 -6.007813 -2.691406 -6.007813 -6.011719 v -82.136719 c 0 -3.320312 2.691406 -6.011718 6.007813 -6.011718 z m 0 0"/>
    </clipPath>
    <clipPath id="J">
        <path d="m 28 78 h 24 v 10 h -24 z m 0 0"/>
    </clipPath>
    <clipPath id="K">
        <path d="m 20.386719 15.335938 h 26.238281 c 3.320312 0 6.007812 2.691406 6.007812 6.011718 v 82.136719 c 0 3.320313 -2.6875 6.011719 -6.007812 6.011719 h -26.238281 c -3.316407 0 -6.007813 -2.691406 -6.007813 -6.011719 v -82.136719 c 0 -3.320312 2.691406 -6.011718 6.007813 -6.011718 z m 0 0"/>
    </clipPath>
    <clipPath id="L">
        <path d="m 14 15 h 39 v 95 h -39 z m 0 0"/>
    </clipPath>
    <clipPath id="M">
        <path d="m 20.386719 15.335938 h 26.238281 c 3.320312 0 6.007812 2.691406 6.007812 6.011718 v 82.136719 c 0 3.320313 -2.6875 6.011719 -6.007812 6.011719 h -26.238281 c -3.316407 0 -6.007813 -2.691406 -6.007813 -6.011719 v -82.136719 c 0 -3.320312 2.691406 -6.011718 6.007813 -6.011718 z m 0 0"/>
    </clipPath>
    <mask id="N">
        <g filter="url(#a)">
            <rect fill-opacity="0.348336" height="153.6" width="153.6" x="-12.8" y="-12.8"/>
        </g>
    </mask>
    <linearGradient id="O" gradientUnits="userSpaceOnUse">
        <stop offset="0"/>
        <stop offset="1" stop-opacity="0"/>
    </linearGradient>
    <linearGradient id="P" gradientTransform="matrix(1 0 0 0.194729 8 -11.587143)" x1="52.104076" x2="42.91169" xlink:href="#O" y1="235.284348" y2="235.284348"/>
    <clipPath id="Q">
        <rect height="152" width="192"/>
    </clipPath>
    <mask id="R">
        <g filter="url(#a)">
            <rect fill-opacity="0.348336" height="153.6" width="153.6" x="-12.8" y="-12.8"/>
        </g>
    </mask>
    <linearGradient id="S" gradientTransform="matrix(1 0 0 0.0629576 8 51.465256)" x1="52.104076" x2="42.91169" xlink:href="#O" y1="235.284348" y2="235.284348"/>
    <clipPath id="T">
        <rect height="152" width="192"/>
    </clipPath>
    <mask id="U">
        <g filter="url(#a)">
            <rect fill-opacity="0.348336" height="153.6" width="153.6" x="-12.8" y="-12.8"/>
        </g>
    </mask>
    <linearGradient id="V" gradientTransform="matrix(1 0 0 0.0526045 8 76.791367)" x1="52.104076" x2="42.91169" xlink:href="#O" y1="235.284348" y2="235.284348"/>
    <clipPath id="W">
        <rect height="152" width="192"/>
    </clipPath>
    <mask id="X">
        <g filter="url(#a)">
            <rect fill-opacity="0.348336" height="153.6" width="153.6" x="-12.8" y="-12.8"/>
        </g>
    </mask>
    <linearGradient id="Y" gradientTransform="matrix(1 0 0 0.160275 8 79.857285)" x1="52.104076" x2="42.91169" xlink:href="#O" y1="235.284348" y2="235.284348"/>
    <clipPath id="Z">
        <rect height="152" width="192"/>
    </clipPath>
    <mask id="aa">
        <g filter="url(#a)">
            <rect fill-opacity="0.348336" height="153.6" width="153.6" x="-12.8" y="-12.8"/>
        </g>
    </mask>
    <linearGradient id="ab" gradientTransform="matrix(0.317756 0 0 0.131772 43.285034 23.214645)" x1="52.104076" x2="42.91169" xlink:href="#O" y1="235.284348" y2="235.284348"/>
    <clipPath id="ac">
        <rect height="152" width="192"/>
    </clipPath>
    <mask id="ad">
        <g filter="url(#a)">
            <rect fill-opacity="0.348336" height="153.6" width="153.6" x="-12.8" y="-12.8"/>
        </g>
    </mask>
    <linearGradient id="ae" gradientTransform="matrix(0.317756 0 0 0.131772 43.285034 46.725952)" x1="52.104076" x2="42.91169" xlink:href="#O" y1="235.284348" y2="235.284348"/>
    <clipPath id="af">
        <rect height="152" width="192"/>
    </clipPath>
    <mask id="ag">
        <g filter="url(#a)">
            <rect fill-opacity="0.348336" height="153.6" width="153.6" x="-12.8" y="-12.8"/>
        </g>
    </mask>
    <linearGradient id="ah" gradientTransform="matrix(0.317756 0 0 0.131772 43.285034 69.059097)" x1="52.104076" x2="42.91169" xlink:href="#O" y1="235.284348" y2="235.284348"/>
    <clipPath id="ai">
        <rect height="152" width="192"/>
    </clipPath>
    <path d="m 12.496094 20.515625 v 92.96875 c 0 4.429687 3.589844 8.019531 8.019531 8.019531 h 38.085937 c 8.78125 0 15.898438 -7.117187 15.898438 -15.898437 c 0.351562 -15.472657 8.4375 -29.738281 21.535156 -37.984375 l 9.828125 -6.503906 c 6.019531 -3.984376 9.640625 -10.722657 9.640625 -17.941407 v -7.128906 c 0 -6.367187 -2.535156 -12.472656 -7.050781 -16.960937 c -4.511719 -4.492188 -10.628906 -7 -16.996094 -6.96875 l -70.941406 0.339843 c -4.4375 0.019531 -8.019531 3.621094 -8.019531 8.058594 z m 0 0" fill="url(#b)"/>
    <path d="m 12.496094 20.515625 v 82.90625 c 0 4.425781 3.589844 8.015625 8.019531 8.015625 h 38.902344 c 8.328125 0 15.082031 -6.75 15.082031 -15.082031 c 0.371094 -15.304688 9.03125 -29.195313 22.609375 -36.265625 l 6.269531 -3.460938 c 7.480469 -4.128906 12.125 -12 12.125 -20.546875 v -0.035156 c 0 -6.367187 -2.535156 -12.472656 -7.050781 -16.960937 c -4.511719 -4.492188 -10.628906 -7 -16.996094 -6.96875 l -70.941406 0.339843 c -4.4375 0.019531 -8.019531 3.621094 -8.019531 8.058594 z m 0 0" fill="url(#c)"/>
    <g clip-path="url(#d)">
        <g clip-path="url(#e)">
            <path d="m 13.203125 12.335938 h 40.605469 v 103.695312 h -40.605469 z m 0 0"/>
        </g>
    </g>
    <g clip-path="url(#f)">
        <g clip-path="url(#g)">
            <path d="m 22.21875 18.484375 h 22.574219 c 3.222656 0 5.835937 2.613281 5.835937 5.832031 v 9.382813 c 0 3.222656 -2.613281 5.835937 -5.835937 5.835937 h -22.574219 c -3.222656 0 -5.832031 -2.613281 -5.832031 -5.835937 v -9.382813 c 0 -3.21875 2.609375 -5.832031 5.832031 -5.832031 z m 0 0" fill="url(#i)"/>
        </g>
    </g>
    <g clip-path="url(#j)">
        <g clip-path="url(#k)">
            <path d="m 22.21875 16.359375 h 22.574219 c 3.222656 0 5.835937 2.613281 5.835937 5.832031 v 9.382813 c 0 3.222656 -2.613281 5.835937 -5.835937 5.835937 h -22.574219 c -3.222656 0 -5.832031 -2.613281 -5.832031 -5.835937 v -9.382813 c 0 -3.21875 2.609375 -5.832031 5.832031 -5.832031 z m 0 0" fill="#f6f5f4"/>
        </g>
    </g>
    <g clip-path="url(#l)">
        <g clip-path="url(#m)">
            <path d="m 22.21875 42.109375 h 22.574219 c 3.222656 0 5.835937 2.613281 5.835937 5.832031 v 9.382813 c 0 3.222656 -2.613281 5.835937 -5.835937 5.835937 h -22.574219 c -3.222656 0 -5.832031 -2.613281 -5.832031 -5.835937 v -9.382813 c 0 -3.21875 2.609375 -5.832031 5.832031 -5.832031 z m 0 0" fill="url(#n)"/>
        </g>
    </g>
    <g clip-path="url(#o)">
        <g clip-path="url(#p)">
            <path d="m 22.21875 39.75 h 22.574219 c 3.222656 0 5.835937 2.609375 5.835937 5.832031 v 9.382813 c 0 3.222656 -2.613281 5.832031 -5.835937 5.832031 h -22.574219 c -3.222656 0 -5.832031 -2.609375 -5.832031 -5.832031 v -9.382813 c 0 -3.222656 2.609375 -5.832031 5.832031 -5.832031 z m 0 0" fill="#f6f5f4"/>
        </g>
    </g>
    <g clip-path="url(#q)">
        <g clip-path="url(#r)">
            <path d="m 22.21875 65.484375 h 22.574219 c 3.222656 0 5.835937 2.613281 5.835937 5.832031 v 9.382813 c 0 3.222656 -2.613281 5.835937 -5.835937 5.835937 h -22.574219 c -3.222656 0 -5.832031 -2.613281 -5.832031 -5.835937 v -9.382813 c 0 -3.21875 2.609375 -5.832031 5.832031 -5.832031 z m 0 0" fill="url(#s)"/>
        </g>
    </g>
    <g clip-path="url(#t)">
        <g clip-path="url(#u)">
            <path d="m 22.21875 63.4375 h 22.574219 c 3.222656 0 5.835937 2.613281 5.835937 5.832031 v 9.382813 c 0 3.222656 -2.613281 5.835937 -5.835937 5.835937 h -22.574219 c -3.222656 0 -5.832031 -2.613281 -5.832031 -5.835937 v -9.382813 c 0 -3.21875 2.609375 -5.832031 5.832031 -5.832031 z m 0 0" fill="#f6f5f4"/>
        </g>
    </g>
    <g clip-path="url(#v)">
        <g clip-path="url(#w)">
            <path d="m 22.21875 88.660156 h 22.574219 c 3.222656 0 5.835937 2.613282 5.835937 5.835938 v 7.789062 c 0 3.222656 -2.613281 5.832032 -5.835937 5.832032 h -22.574219 c -3.222656 0 -5.832031 -2.609376 -5.832031 -5.832032 v -7.789062 c 0 -3.222656 2.609375 -5.835938 5.832031 -5.835938 z m 0 0" fill="url(#i)"/>
        </g>
    </g>
    <g clip-path="url(#x)">
        <g clip-path="url(#y)">
            <path d="m 32.128906 30.847656 h 19.527344 v 15.90625 h -19.527344 c -3.234375 0 -5.835937 -2.601562 -5.835937 -5.832031 v -4.242187 c 0 -3.230469 2.601562 -5.832032 5.835937 -5.832032 z m 0 0" fill="#241f31"/>
        </g>
    </g>
    <g clip-path="url(#z)">
        <g clip-path="url(#A)">
            <path d="m 32.738281 32.929688 h 18.941407 v 8.746093 h -18.941407 c -2.472656 0 -4.460937 -1.949219 -4.460937 -4.375 c 0 -2.421875 1.988281 -4.371093 4.460937 -4.371093 z m 0 0" fill="#5e5c64"/>
        </g>
    </g>
    <g clip-path="url(#B)">
        <g clip-path="url(#C)">
            <path d="m 32.128906 54.355469 h 19.527344 v 15.910156 h -19.527344 c -3.234375 0 -5.835937 -2.601563 -5.835937 -5.832031 v -4.242188 c 0 -3.234375 2.601562 -5.835937 5.835937 -5.835937 z m 0 0" fill="#241f31"/>
        </g>
    </g>
    <g clip-path="url(#D)">
        <g clip-path="url(#E)">
            <path d="m 32.738281 56.4375 h 18.941407 v 8.75 h -18.941407 c -2.472656 0 -4.460937 -1.949219 -4.460937 -4.375 c 0 -2.421875 1.988281 -4.375 4.460937 -4.375 z m 0 0" fill="#5e5c64"/>
        </g>
    </g>
    <g clip-path="url(#F)">
        <g clip-path="url(#G)">
            <path d="m 22.21875 86.59375 h 22.574219 c 3.222656 0 5.835937 2.613281 5.835937 5.835938 v 8.320312 c 0 3.222656 -2.613281 5.832031 -5.835937 5.832031 h -22.574219 c -3.222656 0 -5.832031 -2.609375 -5.832031 -5.832031 v -8.320312 c 0 -3.222657 2.609375 -5.835938 5.832031 -5.835938 z m 0 0" fill="#f6f5f4"/>
        </g>
    </g>
    <g clip-path="url(#H)">
        <g clip-path="url(#I)">
            <path d="m 32.128906 76.632812 h 19.527344 v 15.90625 h -19.527344 c -3.234375 0 -5.835937 -2.601562 -5.835937 -5.832031 v -4.242187 c 0 -3.230469 2.601562 -5.832032 5.835937 -5.832032 z m 0 0" fill="#241f31"/>
        </g>
    </g>
    <g clip-path="url(#J)">
        <g clip-path="url(#K)">
            <path d="m 32.738281 78.714844 h 18.941407 v 8.746094 h -18.941407 c -2.472656 0 -4.460937 -1.949219 -4.460937 -4.375 c 0 -2.421876 1.988281 -4.371094 4.460937 -4.371094 z m 0 0" fill="#5e5c64"/>
        </g>
    </g>
    <g clip-path="url(#L)">
        <g clip-path="url(#M)">
            <g mask="url(#N)">
                <g clip-path="url(#Q)" transform="matrix(1 0 0 1 -8 -16)">
                    <path d="m 50.558594 23.335938 h 34.292968 v 23.511718 h -34.292968 z m 0 0" fill="url(#P)"/>
                </g>
            </g>
            <g mask="url(#R)">
                <g clip-path="url(#T)" transform="matrix(1 0 0 1 -8 -16)">
                    <path d="m 50.558594 62.753906 h 34.292968 v 7.601563 h -34.292968 z m 0 0" fill="url(#S)"/>
                </g>
            </g>
            <g mask="url(#U)">
                <g clip-path="url(#W)" transform="matrix(1 0 0 1 -8 -16)">
                    <path d="m 50.558594 86.226562 h 34.292968 v 6.351563 h -34.292968 z m 0 0" fill="url(#V)"/>
                </g>
            </g>
            <g mask="url(#X)">
                <g clip-path="url(#Z)" transform="matrix(1 0 0 1 -8 -16)">
                    <path d="m 50.558594 108.601562 h 34.292968 v 19.351563 h -34.292968 z m 0 0" fill="url(#Y)"/>
                </g>
            </g>
            <g mask="url(#aa)">
                <g clip-path="url(#ac)" transform="matrix(1 0 0 1 -8 -16)">
                    <path d="m 56.808594 46.847656 h 10.898437 v 15.90625 h -10.898437 z m 0 0" fill="url(#ab)"/>
                </g>
            </g>
            <g mask="url(#ad)">
                <g clip-path="url(#af)" transform="matrix(1 0 0 1 -8 -16)">
                    <path d="m 56.808594 70.355469 h 10.898437 v 15.910156 h -10.898437 z m 0 0" fill="url(#ae)"/>
                </g>
            </g>
            <g mask="url(#ag)">
                <g clip-path="url(#ai)" transform="matrix(1 0 0 1 -8 -16)">
                    <path d="m 56.808594 92.691406 h 10.898437 v 15.910156 h -10.898437 z m 0 0" fill="url(#ah)"/>
                </g>
            </g>
        </g>
    </g>
</svg>
